<svg width="515" height="232" viewBox="0 0 515 232" fill="none" xmlns="http://www.w3.org/2000/svg">
<g clip-path="url(#clip0_1_10)">
<rect width="515" height="232" fill="white"/>
<path d="M77.4773 106H71.1364C70.7614 104.176 70.1051 102.574 69.1676 101.193C68.2472 99.8125 67.1222 98.6534 65.7926 97.7159C64.4801 96.7614 63.0227 96.0455 61.4205 95.5682C59.8182 95.0909 58.1477 94.8523 56.4091 94.8523C53.2386 94.8523 50.3665 95.6534 47.7926 97.2557C45.2358 98.858 43.1989 101.219 41.6818 104.338C40.1818 107.457 39.4318 111.284 39.4318 115.818C39.4318 120.352 40.1818 124.179 41.6818 127.298C43.1989 130.418 45.2358 132.778 47.7926 134.381C50.3665 135.983 53.2386 136.784 56.4091 136.784C58.1477 136.784 59.8182 136.545 61.4205 136.068C63.0227 135.591 64.4801 134.884 65.7926 133.946C67.1222 132.991 68.2472 131.824 69.1676 130.443C70.1051 129.045 70.7614 127.443 71.1364 125.636H77.4773C77 128.312 76.1307 130.707 74.8693 132.821C73.608 134.935 72.0398 136.733 70.1648 138.216C68.2898 139.682 66.1847 140.798 63.8494 141.565C61.5313 142.332 59.0511 142.716 56.4091 142.716C51.9432 142.716 47.9716 141.625 44.4943 139.443C41.017 137.261 38.2813 134.159 36.2869 130.136C34.2926 126.114 33.2955 121.341 33.2955 115.818C33.2955 110.295 34.2926 105.523 36.2869 101.5C38.2813 97.4773 41.017 94.375 44.4943 92.1932C47.9716 90.0114 51.9432 88.9205 56.4091 88.9205C59.0511 88.9205 61.5313 89.304 63.8494 90.071C66.1847 90.8381 68.2898 91.9631 70.1648 93.446C72.0398 94.9119 73.608 96.7017 74.8693 98.8153C76.1307 100.912 77 103.307 77.4773 106ZM102.86 142.818C99.3146 142.818 96.2038 141.974 93.5277 140.287C90.8686 138.599 88.7891 136.239 87.2891 133.205C85.8061 130.17 85.0646 126.625 85.0646 122.568C85.0646 118.477 85.8061 114.906 87.2891 111.855C88.7891 108.804 90.8686 106.435 93.5277 104.747C96.2038 103.06 99.3146 102.216 102.86 102.216C106.406 102.216 109.508 103.06 112.167 104.747C114.843 106.435 116.923 108.804 118.406 111.855C119.906 114.906 120.656 118.477 120.656 122.568C120.656 126.625 119.906 130.17 118.406 133.205C116.923 136.239 114.843 138.599 112.167 140.287C109.508 141.974 106.406 142.818 102.86 142.818ZM102.86 137.398C105.553 137.398 107.769 136.707 109.508 135.327C111.246 133.946 112.533 132.131 113.369 129.881C114.204 127.631 114.621 125.193 114.621 122.568C114.621 119.943 114.204 117.497 113.369 115.23C112.533 112.963 111.246 111.131 109.508 109.733C107.769 108.335 105.553 107.636 102.86 107.636C100.167 107.636 97.951 108.335 96.2124 109.733C94.4737 111.131 93.1868 112.963 92.3516 115.23C91.5163 117.497 91.0987 119.943 91.0987 122.568C91.0987 125.193 91.5163 127.631 92.3516 129.881C93.1868 132.131 94.4737 133.946 96.2124 135.327C97.951 136.707 100.167 137.398 102.86 137.398ZM129.866 142V102.727H135.696V108.864H136.207C137.026 106.767 138.347 105.139 140.17 103.98C141.994 102.804 144.185 102.216 146.741 102.216C149.332 102.216 151.489 102.804 153.21 103.98C154.949 105.139 156.304 106.767 157.276 108.864H157.685C158.69 106.835 160.199 105.224 162.21 104.031C164.222 102.821 166.634 102.216 169.446 102.216C172.957 102.216 175.83 103.315 178.062 105.514C180.295 107.696 181.412 111.097 181.412 115.716V142H175.378V115.716C175.378 112.818 174.585 110.747 173 109.503C171.415 108.259 169.548 107.636 167.401 107.636C164.639 107.636 162.5 108.472 160.983 110.142C159.466 111.795 158.707 113.892 158.707 116.432V142H152.571V115.102C152.571 112.869 151.847 111.071 150.398 109.707C148.949 108.327 147.082 107.636 144.798 107.636C143.23 107.636 141.764 108.054 140.401 108.889C139.054 109.724 137.963 110.884 137.128 112.366C136.31 113.832 135.901 115.528 135.901 117.455V142H129.866ZM192.445 142V102.727H198.479V142H192.445ZM195.513 96.1818C194.337 96.1818 193.322 95.7812 192.47 94.9801C191.635 94.179 191.217 93.2159 191.217 92.0909C191.217 90.9659 191.635 90.0028 192.47 89.2017C193.322 88.4006 194.337 88 195.513 88C196.689 88 197.695 88.4006 198.53 89.2017C199.382 90.0028 199.808 90.9659 199.808 92.0909C199.808 93.2159 199.382 94.179 198.53 94.9801C197.695 95.7812 196.689 96.1818 195.513 96.1818ZM215.565 118.375V142H209.531V102.727H215.36V108.864H215.871C216.792 106.869 218.19 105.267 220.065 104.057C221.94 102.83 224.36 102.216 227.326 102.216C229.985 102.216 232.312 102.761 234.306 103.852C236.3 104.926 237.852 106.562 238.96 108.761C240.067 110.943 240.621 113.705 240.621 117.045V142H234.587V117.455C234.587 114.369 233.786 111.966 232.184 110.244C230.582 108.506 228.383 107.636 225.587 107.636C223.661 107.636 221.94 108.054 220.423 108.889C218.923 109.724 217.738 110.943 216.869 112.545C215.999 114.148 215.565 116.091 215.565 118.375ZM267.5 157.545C264.585 157.545 262.08 157.17 259.983 156.42C257.886 155.688 256.139 154.716 254.741 153.506C253.361 152.313 252.261 151.034 251.443 149.67L256.25 146.295C256.795 147.011 257.486 147.83 258.321 148.75C259.156 149.688 260.298 150.497 261.747 151.179C263.213 151.878 265.131 152.227 267.5 152.227C270.67 152.227 273.287 151.46 275.349 149.926C277.412 148.392 278.443 145.989 278.443 142.716V134.739H277.932C277.489 135.455 276.858 136.341 276.04 137.398C275.239 138.438 274.08 139.366 272.562 140.185C271.062 140.986 269.034 141.386 266.477 141.386C263.307 141.386 260.46 140.636 257.938 139.136C255.432 137.636 253.446 135.455 251.98 132.591C250.531 129.727 249.807 126.25 249.807 122.159C249.807 118.136 250.514 114.634 251.929 111.651C253.344 108.651 255.313 106.332 257.835 104.696C260.358 103.043 263.273 102.216 266.58 102.216C269.136 102.216 271.165 102.642 272.665 103.494C274.182 104.33 275.341 105.284 276.142 106.358C276.96 107.415 277.591 108.284 278.034 108.966H278.648V102.727H284.477V143.125C284.477 146.5 283.71 149.244 282.176 151.358C280.659 153.489 278.614 155.048 276.04 156.037C273.483 157.043 270.636 157.545 267.5 157.545ZM267.295 135.966C269.716 135.966 271.761 135.412 273.432 134.304C275.102 133.196 276.372 131.602 277.241 129.523C278.111 127.443 278.545 124.955 278.545 122.057C278.545 119.227 278.119 116.73 277.267 114.565C276.415 112.401 275.153 110.705 273.483 109.477C271.813 108.25 269.75 107.636 267.295 107.636C264.739 107.636 262.608 108.284 260.903 109.58C259.216 110.875 257.946 112.614 257.094 114.795C256.259 116.977 255.841 119.398 255.841 122.057C255.841 124.784 256.267 127.196 257.119 129.293C257.989 131.372 259.267 133.009 260.955 134.202C262.659 135.378 264.773 135.966 267.295 135.966ZM345.227 102.727C344.92 100.136 343.676 98.125 341.494 96.6932C339.313 95.2614 336.636 94.5455 333.466 94.5455C331.148 94.5455 329.119 94.9205 327.381 95.6705C325.659 96.4205 324.313 97.4517 323.341 98.7642C322.386 100.077 321.909 101.568 321.909 103.239C321.909 104.636 322.241 105.838 322.906 106.844C323.588 107.832 324.457 108.659 325.514 109.324C326.571 109.972 327.679 110.509 328.838 110.935C329.997 111.344 331.062 111.676 332.034 111.932L337.352 113.364C338.716 113.722 340.233 114.216 341.903 114.847C343.591 115.477 345.202 116.338 346.736 117.429C348.287 118.503 349.565 119.884 350.571 121.571C351.577 123.259 352.08 125.33 352.08 127.784C352.08 130.614 351.338 133.17 349.855 135.455C348.389 137.739 346.241 139.554 343.412 140.901C340.599 142.247 337.182 142.92 333.159 142.92C329.409 142.92 326.162 142.315 323.418 141.105C320.69 139.895 318.543 138.207 316.974 136.043C315.423 133.878 314.545 131.364 314.341 128.5H320.886C321.057 130.477 321.722 132.114 322.881 133.409C324.057 134.687 325.54 135.642 327.33 136.273C329.136 136.886 331.08 137.193 333.159 137.193C335.58 137.193 337.753 136.801 339.679 136.017C341.605 135.216 343.131 134.108 344.256 132.693C345.381 131.261 345.943 129.591 345.943 127.682C345.943 125.943 345.457 124.528 344.486 123.438C343.514 122.347 342.236 121.46 340.651 120.778C339.065 120.097 337.352 119.5 335.511 118.989L329.068 117.148C324.977 115.972 321.739 114.293 319.352 112.111C316.966 109.929 315.773 107.074 315.773 103.545C315.773 100.614 316.565 98.0568 318.151 95.875C319.753 93.6761 321.901 91.9716 324.594 90.7614C327.304 89.5341 330.33 88.9205 333.67 88.9205C337.045 88.9205 340.045 89.5256 342.67 90.7358C345.295 91.929 347.375 93.5653 348.909 95.6449C350.46 97.7244 351.278 100.085 351.364 102.727H345.227ZM377.641 142.818C374.096 142.818 370.985 141.974 368.309 140.287C365.65 138.599 363.57 136.239 362.07 133.205C360.587 130.17 359.846 126.625 359.846 122.568C359.846 118.477 360.587 114.906 362.07 111.855C363.57 108.804 365.65 106.435 368.309 104.747C370.985 103.06 374.096 102.216 377.641 102.216C381.187 102.216 384.289 103.06 386.948 104.747C389.624 106.435 391.704 108.804 393.187 111.855C394.687 114.906 395.437 118.477 395.437 122.568C395.437 126.625 394.687 130.17 393.187 133.205C391.704 136.239 389.624 138.599 386.948 140.287C384.289 141.974 381.187 142.818 377.641 142.818ZM377.641 137.398C380.335 137.398 382.55 136.707 384.289 135.327C386.028 133.946 387.315 132.131 388.15 129.881C388.985 127.631 389.403 125.193 389.403 122.568C389.403 119.943 388.985 117.497 388.15 115.23C387.315 112.963 386.028 111.131 384.289 109.733C382.55 108.335 380.335 107.636 377.641 107.636C374.948 107.636 372.732 108.335 370.994 109.733C369.255 111.131 367.968 112.963 367.133 115.23C366.298 117.497 365.88 119.943 365.88 122.568C365.88 125.193 366.298 127.631 367.133 129.881C367.968 132.131 369.255 133.946 370.994 135.327C372.732 136.707 374.948 137.398 377.641 137.398ZM420.602 142.818C417.057 142.818 413.946 141.974 411.27 140.287C408.611 138.599 406.531 136.239 405.031 133.205C403.548 130.17 402.807 126.625 402.807 122.568C402.807 118.477 403.548 114.906 405.031 111.855C406.531 108.804 408.611 106.435 411.27 104.747C413.946 103.06 417.057 102.216 420.602 102.216C424.148 102.216 427.25 103.06 429.909 104.747C432.585 106.435 434.665 108.804 436.148 111.855C437.648 114.906 438.398 118.477 438.398 122.568C438.398 126.625 437.648 130.17 436.148 133.205C434.665 136.239 432.585 138.599 429.909 140.287C427.25 141.974 424.148 142.818 420.602 142.818ZM420.602 137.398C423.295 137.398 425.511 136.707 427.25 135.327C428.989 133.946 430.276 132.131 431.111 129.881C431.946 127.631 432.364 125.193 432.364 122.568C432.364 119.943 431.946 117.497 431.111 115.23C430.276 112.963 428.989 111.131 427.25 109.733C425.511 108.335 423.295 107.636 420.602 107.636C417.909 107.636 415.693 108.335 413.955 109.733C412.216 111.131 410.929 112.963 410.094 115.23C409.259 117.497 408.841 119.943 408.841 122.568C408.841 125.193 409.259 127.631 410.094 129.881C410.929 132.131 412.216 133.946 413.955 135.327C415.693 136.707 417.909 137.398 420.602 137.398ZM453.643 118.375V142H447.609V102.727H453.438V108.864H453.95C454.87 106.869 456.268 105.267 458.143 104.057C460.018 102.83 462.438 102.216 465.404 102.216C468.063 102.216 470.39 102.761 472.384 103.852C474.379 104.926 475.93 106.562 477.038 108.761C478.146 110.943 478.7 113.705 478.7 117.045V142H472.665V117.455C472.665 114.369 471.864 111.966 470.262 110.244C468.66 108.506 466.461 107.636 463.665 107.636C461.739 107.636 460.018 108.054 458.501 108.889C457.001 109.724 455.816 110.943 454.947 112.545C454.077 114.148 453.643 116.091 453.643 118.375Z" fill="#001F3F"/>
<path d="M427.843 204.489C429.938 198.04 439.062 198.04 441.157 204.489L443.593 211.985C444.53 214.869 447.218 216.822 450.25 216.822H458.131C464.912 216.822 467.732 225.499 462.246 229.485L455.87 234.117C453.416 235.9 452.39 239.059 453.327 241.943L455.762 249.439C457.858 255.888 450.477 261.251 444.991 257.265L438.614 252.633C436.161 250.85 432.839 250.85 430.386 252.633L424.009 257.265C418.524 261.251 411.142 255.888 413.238 249.439L415.673 241.943C416.61 239.059 415.584 235.9 413.13 234.117L406.754 229.485C401.268 225.499 404.088 216.822 410.869 216.822H418.75C421.782 216.822 424.47 214.869 425.407 211.985L427.843 204.489Z" fill="#FFD700"/>
<path d="M2.8426 -14.5106C4.93806 -20.9598 14.0619 -20.9598 16.1574 -14.5106L18.5928 -7.01519C19.5299 -4.13103 22.2176 -2.17831 25.2502 -2.17831H33.1314C39.9124 -2.17831 42.7319 6.499 37.2459 10.4848L30.8699 15.1173C28.4165 16.8998 27.3899 20.0593 28.327 22.9435L30.7624 30.4389C32.8579 36.8881 25.4765 42.251 19.9905 38.2652L13.6145 33.6327C11.1611 31.8502 7.83892 31.8502 5.3855 33.6327L-0.990503 38.2652C-6.4765 42.251 -13.8579 36.8881 -11.7624 30.4389L-9.32698 22.9435C-8.38986 20.0593 -9.41647 16.8998 -11.8699 15.1173L-18.2459 10.4848C-23.7319 6.49901 -20.9125 -2.17831 -14.1314 -2.17831H-6.25022C-3.21763 -2.17831 -0.529935 -4.13103 0.407184 -7.01519L2.8426 -14.5106Z" fill="#FFD700"/>
<path d="M487.084 15.8302C488.155 14.2155 490.666 14.9141 490.749 16.8498L491.201 27.3952C491.238 28.2609 491.829 29.0042 492.663 29.2364L502.832 32.0652C504.699 32.5844 504.811 35.1889 502.995 35.8659L493.106 39.5546C492.294 39.8574 491.769 40.6485 491.806 41.5141L492.259 52.0595C492.341 53.9952 489.899 54.9062 488.694 53.389L482.13 45.1233C481.591 44.4447 480.677 44.1903 479.865 44.4931L469.975 48.1818C468.16 48.8589 466.539 46.8174 467.609 45.2027L473.442 36.4055C473.921 35.6834 473.88 34.7351 473.341 34.0566L466.777 25.7908C465.572 24.2736 467.013 22.101 468.88 22.6202L479.048 25.449C479.883 25.6812 480.773 25.3495 481.251 24.6274L487.084 15.8302Z" fill="#FFD700"/>
<path d="M120.598 24.8541C121.197 23.0115 123.803 23.0115 124.402 24.8541L125.306 27.6373C125.574 28.4613 126.342 29.0193 127.209 29.0193L130.135 29.0193C132.072 29.0193 132.878 31.4985 131.311 32.6373L128.943 34.3574C128.242 34.8667 127.949 35.7694 128.216 36.5935L129.121 39.3766C129.719 41.2193 127.611 42.7515 126.043 41.6127L123.676 39.8926C122.975 39.3833 122.025 39.3833 121.324 39.8926L118.957 41.6127C117.389 42.7515 115.281 41.2193 115.879 39.3766L116.784 36.5935C117.051 35.7694 116.758 34.8667 116.057 34.3574L113.689 32.6373C112.122 31.4985 112.928 29.0193 114.865 29.0193L117.791 29.0193C118.658 29.0193 119.426 28.4613 119.694 27.6373L120.598 24.8541Z" fill="#FFD700"/>
<path d="M339.383 180.558C341 180.046 342.328 181.902 341.32 183.267V183.267C340.87 183.877 340.863 184.708 341.304 185.325V185.325C342.291 186.705 340.935 188.542 339.326 188.005V188.005C338.606 187.765 337.814 188.016 337.364 188.626V188.626C336.356 189.991 334.191 189.269 334.204 187.573V187.573C334.21 186.814 333.726 186.138 333.007 185.898V185.898C331.397 185.362 331.415 183.08 333.032 182.568V182.568C333.755 182.339 334.249 181.67 334.255 180.912V180.912C334.268 179.215 336.444 178.527 337.43 179.907V179.907C337.871 180.524 338.66 180.786 339.383 180.558V180.558Z" fill="#FFD700"/>
<path d="M22.859 183.741C22.7249 181.809 25.1424 180.833 26.387 182.318L33.1673 190.408C33.7239 191.072 34.6447 191.302 35.4483 190.978L45.2369 187.029C47.0337 186.304 48.7082 188.302 47.6807 189.945L42.0824 198.893C41.6229 199.627 41.6886 200.574 42.2452 201.238L49.0255 209.328C50.27 210.812 48.8874 213.022 47.0078 212.553L36.7676 209.994C35.927 209.784 35.0467 210.139 34.5872 210.873L28.9889 219.821C27.9613 221.464 25.4323 220.832 25.2982 218.899L24.5677 208.369C24.5077 207.505 23.898 206.777 23.0574 206.567L12.8172 204.008C10.9375 203.538 10.7571 200.938 12.5539 200.213L22.3425 196.264C23.1461 195.94 23.6495 195.136 23.5895 194.271L22.859 183.741Z" fill="#FFD700"/>
</g>
<defs>
<clipPath id="clip0_1_10">
<rect width="515" height="232" fill="white"/>
</clipPath>
</defs>
</svg>
